<?xml version="1.0" encoding="UTF-8"?>
<svg id="Camada_1" data-name="Camada 1" xmlns="http://www.w3.org/2000/svg" xmlns:xlink="http://www.w3.org/1999/xlink" viewBox="0 0 734.4 174.72">
  <defs>
    <style>
      .cls-1 {
        fill: url(#linear-gradient);
      }

      .cls-1, .cls-2, .cls-3, .cls-4, .cls-5, .cls-6, .cls-7 {
        stroke-width: 0px;
      }

      .cls-2 {
        fill: url(#linear-gradient-6);
      }

      .cls-3 {
        fill: url(#linear-gradient-5);
      }

      .cls-4 {
        fill: url(#linear-gradient-2);
      }

      .cls-5 {
        fill: url(#linear-gradient-3);
      }

      .cls-6 {
        fill: #fff;
      }

      .cls-7 {
        fill: url(#linear-gradient-4);
      }
    </style>
    <linearGradient id="linear-gradient" x1="-2034.87" y1="2985.13" x2="-1943.76" y2="2985.13" gradientTransform="translate(1844.83 -3081.08) rotate(-4.41)" gradientUnits="userSpaceOnUse">
      <stop offset="0" stop-color="#ffdb00"/>
      <stop offset=".31" stop-color="#fdd800"/>
      <stop offset=".5" stop-color="#f7cf01"/>
      <stop offset=".66" stop-color="#ecc103"/>
      <stop offset=".81" stop-color="#deac05"/>
      <stop offset=".9" stop-color="#d29b08"/>
      <stop offset=".96" stop-color="#ebbf03"/>
      <stop offset="1" stop-color="#ffdb00"/>
    </linearGradient>
    <linearGradient id="linear-gradient-2" x1="-1990.86" y1="3027.64" x2="-1935.8" y2="3027.64" xlink:href="#linear-gradient"/>
    <linearGradient id="linear-gradient-3" x1="-56.89" y1="5816.23" x2="-11.67" y2="5816.23" gradientTransform="translate(890.26 -5667.65) rotate(7.86)" gradientUnits="userSpaceOnUse">
      <stop offset="0" stop-color="#163e66"/>
      <stop offset=".01" stop-color="#16416a"/>
      <stop offset=".14" stop-color="#206795"/>
      <stop offset=".26" stop-color="#2885b7"/>
      <stop offset=".38" stop-color="#2e9acf"/>
      <stop offset=".48" stop-color="#31a7dd"/>
      <stop offset=".57" stop-color="#33ace3"/>
      <stop offset=".69" stop-color="#2fa5de"/>
      <stop offset=".86" stop-color="#2694d2"/>
      <stop offset="1" stop-color="#1c80c4"/>
    </linearGradient>
    <linearGradient id="linear-gradient-4" x1="-1589.57" y1="3114.58" x2="-1503.9" y2="3114.58" gradientTransform="translate(1640.22 -3018.09)" gradientUnits="userSpaceOnUse">
      <stop offset=".44" stop-color="#5bbeb7"/>
      <stop offset="1" stop-color="#5bbeb7"/>
    </linearGradient>
    <linearGradient id="linear-gradient-5" x1="-493.93" y1="-1292.15" x2="-541.56" y2="-1292.15" gradientTransform="translate(-1210.36 609.21) rotate(90)" gradientUnits="userSpaceOnUse">
      <stop offset="0" stop-color="#153c68"/>
      <stop offset=".19" stop-color="#153f6c"/>
      <stop offset=".41" stop-color="#164a7b"/>
      <stop offset=".65" stop-color="#185b92"/>
      <stop offset=".9" stop-color="#1a74b3"/>
      <stop offset="1" stop-color="#1c80c4"/>
    </linearGradient>
    <linearGradient id="linear-gradient-6" x1="-1538.17" y1="3161.67" x2="-1538.17" y2="3081.65" gradientTransform="translate(1640.22 -3018.09)" gradientUnits="userSpaceOnUse">
      <stop offset="0" stop-color="#153c68"/>
      <stop offset=".14" stop-color="#16406c"/>
      <stop offset=".31" stop-color="#194d7b"/>
      <stop offset=".5" stop-color="#1f6393"/>
      <stop offset=".69" stop-color="#2781b4"/>
      <stop offset=".89" stop-color="#31a7de"/>
      <stop offset=".91" stop-color="#33ace3"/>
      <stop offset=".93" stop-color="#2fa5de"/>
      <stop offset=".97" stop-color="#2694d2"/>
      <stop offset="1" stop-color="#1c80c4"/>
    </linearGradient>
  </defs>
  <g>
    <path class="cls-6" d="M356.49,107.18c-10.13,0-15.5-8.36-15.5-16.49s4.99-15.65,15.5-15.65c7.59,0,13.73,5.6,13.73,5.6l6.21-10.13s-6.98-7.75-20.56-7.75c-16.49,0-28.76,12.27-28.76,28.23s11.58,28.46,28.76,28.46c14.35,0,22.1-9.2,22.1-9.2l-6.91-9.82s-6.28,6.75-14.57,6.75ZM173.81,63.69l-.06.16-.17-.06-18.64,54.85,7.07-.11c5.05.17,7.22-1.96,8.68-5.86l1.51-5.38.08-.27h.09l.18-.67h16.62l.2.67h.02l3.37,11.51h13.81l-18.64-54.84h-14.11ZM175.54,95.48l2.22-8.1.03.02.58-2.19,2.52-9.02h.04l5.08,19.29h-10.49ZM410.73,62.76c-16.57,0-28.69,12.27-28.69,28s12.12,28.69,28.69,28.69,28.68-12.58,28.68-28.69-12.12-28-28.68-28ZM410.73,107.18c-8.21,0-14.81-7.06-14.81-16.42s6.6-15.73,14.81-15.73,14.8,6.75,14.8,15.73-6.59,16.42-14.8,16.42ZM203.57,74.7h16.91v43.96h6.66c4.44,0,6.13-3.62,6.13-7.66v-36.3h10.23c3.53,0,6.67-1.46,6.67-5.33v-5.8h-46.6v11.13ZM309.48,118.56h6.87c4.57,0,6.31-3.73,6.31-7.9v-46.97h-13.18v54.87ZM288.8,96.06v-.15c5.45-2.76,8.21-9.13,8.21-14.96,0-7.98-3.91-13.58-10.12-15.96-2.38-.92-5.07-1.3-10.67-1.3h-19.1v54.84h13.42v-18.49h6.29l9.74,18.49h14.96l-10.66-19.18c-1.3-2.3-2.07-3.3-2.07-3.3ZM276.37,88.54h-5.83v-13.35h4.53c6.75,0,8.28,2.45,8.28,6.6,0,4.37-2.69,6.75-6.98,6.75ZM476.63,63.69v33.24l-19.36-33.28-.05.03h-13.5l-.06,55.06h7.05c4.71,0,6.49-3.84,6.49-8.12l-.04-10.36v-14.97l19.31,33.23h12.91v-54.84h-12.76Z"/>
    <g>
      <path class="cls-6" d="M528.4,77.27h-2.81l-.74,2.15h-1.08l2.69-7.46h1.1l2.69,7.46h-1.09l-.75-2.15ZM526.99,72.98s-.17.68-.3,1.06l-.84,2.37h2.26l-.82-2.37c-.13-.38-.29-1.06-.29-1.06h-.02Z"/>
      <path class="cls-6" d="M532.63,77.77s.79.8,1.9.8c.7,0,1.29-.39,1.29-1.1,0-1.62-3.62-1.27-3.62-3.56,0-1.16,1-2.08,2.41-2.08s2.11.75,2.11.75l-.48.87s-.69-.64-1.64-.64c-.79,0-1.35.5-1.35,1.09,0,1.54,3.62,1.13,3.62,3.55,0,1.15-.89,2.1-2.37,2.1-1.59,0-2.47-.98-2.47-.98l.59-.79Z"/>
      <path class="cls-6" d="M539.67,77.63s.79.8,1.9.8c.7,0,1.29-.39,1.29-1.1,0-1.62-3.62-1.27-3.62-3.56,0-1.16,1-2.08,2.41-2.08s2.11.75,2.11.75l-.48.87s-.69-.64-1.64-.64c-.79,0-1.35.5-1.35,1.09,0,1.54,3.62,1.13,3.62,3.55,0,1.15-.89,2.1-2.37,2.1-1.59,0-2.47-.98-2.47-.98l.59-.79Z"/>
      <path class="cls-6" d="M549.87,71.7c2.16,0,3.83,1.66,3.83,3.81s-1.67,3.91-3.83,3.91-3.84-1.71-3.84-3.91,1.68-3.81,3.84-3.81ZM549.87,78.45c1.52,0,2.75-1.27,2.75-2.95s-1.23-2.85-2.75-2.85-2.76,1.23-2.76,2.85,1.24,2.95,2.76,2.95Z"/>
      <path class="cls-6" d="M559.61,71.7c1.8,0,2.72.98,2.72.98l-.52.78s-.87-.81-2.16-.81c-1.67,0-2.76,1.27-2.76,2.85s1.11,2.95,2.77,2.95c1.41,0,2.3-.97,2.3-.97l.56.75s-1.03,1.18-2.9,1.18c-2.24,0-3.82-1.71-3.82-3.9s1.63-3.82,3.8-3.82Z"/>
      <path class="cls-6" d="M564.77,71.82h1.05v7.46h-1.05v-7.46Z"/>
      <path class="cls-6" d="M573.07,77.57h-2.81l-.74,2.15h-1.08l2.69-7.46h1.1l2.69,7.46h-1.09l-.75-2.15ZM571.66,73.28s-.17.68-.3,1.06l-.84,2.37h2.26l-.82-2.37c-.13-.38-.29-1.06-.29-1.06h-.02Z"/>
      <path class="cls-6" d="M580.61,71.94c1.8,0,2.72.98,2.72.98l-.52.78s-.87-.81-2.16-.81c-1.67,0-2.76,1.27-2.76,2.85s1.11,2.95,2.77,2.95c1.41,0,2.31-.97,2.31-.97l.56.75s-.97,1.11-2.74,1.18l-.08.4c.43.05.76.32.76.77,0,.66-.54.89-1.08.89-.34,0-.58-.07-.58-.07v-.61s.21.07.44.07c.26,0,.51-.08.51-.33,0-.22-.23-.33-.56-.33-.1,0-.19.01-.19.01l.21-.82c-2.02-.19-3.4-1.83-3.4-3.88,0-2.17,1.63-3.82,3.8-3.82Z"/>
      <path class="cls-6" d="M589.74,77.27h-2.81l-.74,2.15h-1.08l2.69-7.46h1.1l2.69,7.46h-1.09l-.75-2.15ZM587.65,70.08c.71,0,.88.72,1.33.72.32,0,.41-.38.41-.69h.74c0,.88-.36,1.34-1.08,1.34s-.88-.72-1.33-.72c-.32,0-.41.37-.41.69h-.74c0-.89.36-1.34,1.08-1.34ZM588.33,72.98s-.17.68-.3,1.06l-.83,2.37h2.26l-.82-2.37c-.13-.38-.29-1.06-.29-1.06h-.02Z"/>
      <path class="cls-6" d="M597.01,71.82c2.16,0,3.83,1.66,3.83,3.81s-1.67,3.91-3.83,3.91-3.84-1.71-3.84-3.91,1.68-3.81,3.84-3.81ZM597.01,78.58c1.52,0,2.75-1.27,2.75-2.95s-1.23-2.85-2.75-2.85-2.76,1.23-2.76,2.85,1.24,2.95,2.76,2.95Z"/>
      <path class="cls-6" d="M607.38,72.08h2.47c2.28,0,3.78,1.36,3.78,3.72s-1.5,3.74-3.78,3.74h-2.47v-7.46ZM609.78,78.63c1.68,0,2.78-.99,2.78-2.83s-1.11-2.81-2.78-2.81h-1.35v5.65h1.35Z"/>
      <path class="cls-6" d="M619.63,71.82c2.16,0,3.83,1.66,3.83,3.81s-1.67,3.91-3.83,3.91-3.84-1.71-3.84-3.91,1.68-3.81,3.84-3.81ZM619.63,78.58c1.52,0,2.75-1.27,2.75-2.95s-1.23-2.85-2.75-2.85-2.76,1.23-2.76,2.85,1.24,2.95,2.76,2.95Z"/>
      <path class="cls-6" d="M626.42,77.77s.79.8,1.9.8c.7,0,1.29-.39,1.29-1.1,0-1.62-3.62-1.27-3.62-3.56,0-1.16,1-2.08,2.41-2.08s2.11.75,2.11.75l-.48.87s-.69-.64-1.64-.64c-.79,0-1.35.5-1.35,1.09,0,1.54,3.62,1.13,3.62,3.55,0,1.15-.89,2.1-2.37,2.1-1.59,0-2.47-.98-2.47-.98l.59-.79Z"/>
      <g>
        <path class="cls-6" d="M525.13,86.59h1.1l1.71,4.04c.17.41.37,1,.37,1h.02s.2-.59.37-1l1.71-4.04h1.1l.6,7.46h-1.04l-.37-4.7c-.03-.45-.01-1.1-.01-1.1h-.02s-.22.69-.4,1.1l-1.49,3.36h-.93l-1.48-3.36c-.17-.4-.4-1.12-.4-1.12h-.02s.01.67-.02,1.12l-.36,4.7h-1.05l.6-7.46Z"/>
        <path class="cls-6" d="M535.18,86.59h4.33v.91h-3.29v2.34h2.67v.91h-2.67v2.4h3.47v.91h-4.51v-7.46Z"/>
        <path class="cls-6" d="M542.88,86.59h1.1l1.71,4.04c.17.41.37,1,.37,1h.02s.2-.59.37-1l1.71-4.04h1.1l.6,7.46h-1.04l-.37-4.7c-.03-.45-.01-1.1-.01-1.1h-.02s-.22.69-.4,1.1l-1.49,3.36h-.93l-1.48-3.36c-.17-.4-.4-1.12-.4-1.12h-.02s.01.67-.02,1.12l-.36,4.7h-1.05l.6-7.46Z"/>
        <path class="cls-6" d="M552.93,86.59h2.61c1.26,0,2.17.7,2.17,1.9,0,.73-.36,1.31-.93,1.61v.02c.78.23,1.23.97,1.23,1.81,0,1.41-1.09,2.12-2.4,2.12h-2.67v-7.46ZM555.54,89.73c.68,0,1.1-.48,1.1-1.13s-.4-1.1-1.12-1.1h-1.54v2.23h1.56ZM555.66,93.15c.8,0,1.28-.51,1.28-1.27s-.51-1.28-1.29-1.28h-1.67v2.55h1.68Z"/>
        <path class="cls-6" d="M560.9,86.59h2.28c.78,0,1.11.06,1.4.17.76.29,1.26,1.04,1.26,2.02s-.53,1.76-1.34,2.02v.02s.08.1.22.34l1.59,2.9h-1.18l-1.58-2.97h-1.6v2.97h-1.05v-7.46ZM563.45,90.18c.81,0,1.32-.52,1.32-1.35,0-.55-.21-.94-.59-1.15-.2-.11-.44-.17-1.03-.17h-1.21v2.67h1.5Z"/>
        <path class="cls-6" d="M572.28,86.47c2.16,0,3.83,1.66,3.83,3.81s-1.67,3.91-3.83,3.91-3.84-1.71-3.84-3.91,1.68-3.81,3.84-3.81ZM572.28,93.22c1.52,0,2.75-1.27,2.75-2.95s-1.23-2.85-2.75-2.85-2.76,1.23-2.76,2.85,1.24,2.95,2.76,2.95Z"/>
        <path class="cls-6" d="M578.92,92.41s.79.8,1.9.8c.7,0,1.29-.39,1.29-1.1,0-1.62-3.62-1.27-3.62-3.56,0-1.16,1-2.08,2.41-2.08s2.11.75,2.11.75l-.48.87s-.69-.64-1.64-.64c-.79,0-1.35.5-1.35,1.09,0,1.54,3.62,1.13,3.62,3.55,0,1.15-.89,2.1-2.37,2.1-1.59,0-2.47-.98-2.47-.98l.59-.79Z"/>
      </g>
      <g>
        <path class="cls-6" d="M589.13,86.39h2.47c2.28,0,3.78,1.36,3.78,3.72s-1.5,3.74-3.78,3.74h-2.47v-7.46ZM591.53,92.95c1.68,0,2.78-.99,2.78-2.83s-1.11-2.81-2.78-2.81h-1.35v5.65h1.35Z"/>
        <path class="cls-6" d="M601.55,86.26c2.16,0,3.83,1.66,3.83,3.81s-1.67,3.91-3.83,3.91-3.84-1.71-3.84-3.91,1.68-3.81,3.84-3.81ZM601.55,93.02c1.52,0,2.75-1.27,2.75-2.95s-1.23-2.85-2.75-2.85-2.76,1.23-2.76,2.85,1.24,2.95,2.76,2.95Z"/>
        <path class="cls-6" d="M608.19,92.21s.79.8,1.9.8c.7,0,1.29-.39,1.29-1.1,0-1.62-3.62-1.27-3.62-3.56,0-1.16,1-2.08,2.41-2.08s2.11.75,2.11.75l-.48.87s-.69-.64-1.64-.64c-.79,0-1.35.5-1.35,1.09,0,1.54,3.62,1.13,3.62,3.55,0,1.15-.89,2.1-2.37,2.1-1.59,0-2.47-.98-2.47-.98l.59-.79Z"/>
      </g>
      <g>
        <path class="cls-6" d="M619.85,87.03h-2.56v-.91h6.16v.91h-2.56v6.55h-1.05v-6.55Z"/>
        <path class="cls-6" d="M625.8,86.12h2.28c.78,0,1.11.06,1.4.17.76.28,1.26,1.04,1.26,2.02s-.53,1.76-1.34,2.02v.02s.08.09.22.34l1.59,2.9h-1.18l-1.58-2.97h-1.6v2.97h-1.05v-7.46ZM628.34,89.7c.81,0,1.32-.52,1.32-1.35,0-.55-.21-.94-.59-1.15-.2-.11-.44-.17-1.03-.17h-1.21v2.67h1.5Z"/>
        <path class="cls-6" d="M633.84,86.12h1.05v7.46h-1.05v-7.46Z"/>
        <path class="cls-6" d="M638.19,86.12h2.61c1.26,0,2.17.7,2.17,1.9,0,.73-.36,1.31-.93,1.61v.02c.78.23,1.23.97,1.23,1.81,0,1.41-1.09,2.12-2.4,2.12h-2.67v-7.46ZM640.8,89.26c.68,0,1.1-.48,1.1-1.13s-.4-1.1-1.12-1.1h-1.54v2.23h1.56ZM640.91,92.67c.8,0,1.28-.51,1.28-1.27s-.51-1.28-1.29-1.28h-1.67v2.55h1.68Z"/>
        <path class="cls-6" d="M646.05,86.12h1.05v4.82c0,1.14.74,1.81,1.88,1.81s1.9-.67,1.9-1.83v-4.8h1.05v4.82c0,1.66-1.19,2.77-2.94,2.77s-2.94-1.11-2.94-2.77v-4.82Z"/>
        <path class="cls-6" d="M655.12,86.12h1.04l3.32,4.85c.27.4.62,1.08.62,1.08h.02s-.07-.67-.07-1.08v-4.85h1.05v7.46h-1.03l-3.33-4.84c-.27-.41-.62-1.09-.62-1.09h-.02s.07.67.07,1.09v4.84h-1.05v-7.46Z"/>
        <path class="cls-6" d="M668.09,91.43h-2.81l-.74,2.15h-1.08l2.69-7.46h1.1l2.69,7.46h-1.09l-.75-2.15ZM666.69,87.14s-.17.68-.3,1.06l-.84,2.37h2.26l-.82-2.37c-.13-.38-.29-1.06-.29-1.06h-.02Z"/>
        <path class="cls-6" d="M672.3,86.12h1.05v7.46h-1.05v-7.46Z"/>
        <path class="cls-6" d="M676.67,91.93s.79.8,1.9.8c.7,0,1.29-.39,1.29-1.1,0-1.62-3.62-1.27-3.62-3.56,0-1.16,1-2.08,2.41-2.08s2.11.75,2.11.75l-.48.87s-.69-.64-1.64-.64c-.79,0-1.35.5-1.35,1.09,0,1.54,3.62,1.13,3.62,3.55,0,1.15-.89,2.1-2.37,2.1-1.59,0-2.47-.98-2.47-.98l.59-.79Z"/>
      </g>
      <g>
        <path class="cls-6" d="M524.52,100.25h2.47c2.28,0,3.78,1.36,3.78,3.72s-1.5,3.74-3.78,3.74h-2.47v-7.46ZM526.92,106.8c1.68,0,2.78-.99,2.78-2.83s-1.11-2.81-2.78-2.81h-1.35v5.65h1.35Z"/>
        <path class="cls-6" d="M533.62,100.25h4.33v.91h-3.29v2.34h2.67v.91h-2.67v2.4h3.47v.91h-4.51v-7.46Z"/>
      </g>
      <g>
        <path class="cls-6" d="M547.54,100.44c1.8,0,2.72.98,2.72.98l-.52.78s-.87-.81-2.16-.81c-1.67,0-2.76,1.27-2.76,2.85s1.11,2.95,2.77,2.95c1.41,0,2.3-.97,2.3-.97l.56.75s-1.03,1.18-2.9,1.18c-2.24,0-3.82-1.71-3.82-3.9s1.63-3.82,3.8-3.82Z"/>
        <path class="cls-6" d="M556.43,100.44c2.16,0,3.83,1.66,3.83,3.81s-1.67,3.91-3.83,3.91-3.84-1.71-3.84-3.91,1.68-3.81,3.84-3.81ZM556.43,107.19c1.52,0,2.75-1.27,2.75-2.95s-1.23-2.85-2.75-2.85-2.76,1.23-2.76,2.85,1.24,2.95,2.76,2.95Z"/>
        <path class="cls-6" d="M563.04,100.56h1.04l3.32,4.85c.27.4.62,1.08.62,1.08h.02s-.07-.67-.07-1.08v-4.85h1.05v7.46h-1.03l-3.33-4.84c-.28-.41-.62-1.09-.62-1.09h-.02s.07.67.07,1.09v4.84h-1.05v-7.46Z"/>
        <path class="cls-6" d="M573.91,101.47h-2.56v-.91h6.16v.91h-2.56v6.55h-1.05v-6.55Z"/>
        <path class="cls-6" d="M583.1,105.88h-2.81l-.74,2.15h-1.08l2.69-7.46h1.1l2.69,7.46h-1.09l-.75-2.15ZM581.69,101.59s-.17.68-.3,1.06l-.84,2.37h2.26l-.82-2.37c-.13-.38-.29-1.06-.29-1.06h-.02Z"/>
        <path class="cls-6" d="M587.33,106.38s.79.8,1.9.8c.7,0,1.29-.39,1.29-1.1,0-1.62-3.62-1.27-3.62-3.56,0-1.16,1-2.08,2.41-2.08s2.11.75,2.11.75l-.48.87s-.69-.64-1.64-.64c-.79,0-1.35.5-1.35,1.09,0,1.54,3.62,1.13,3.62,3.55,0,1.15-.89,2.1-2.37,2.1-1.59,0-2.47-.98-2.47-.98l.59-.79Z"/>
      </g>
      <g>
        <path class="cls-6" d="M598.1,100.56h2.47c2.28,0,3.78,1.36,3.78,3.72s-1.5,3.74-3.78,3.74h-2.47v-7.46ZM600.5,107.12c1.68,0,2.78-.99,2.78-2.83s-1.11-2.81-2.78-2.81h-1.35v5.65h1.35Z"/>
        <path class="cls-6" d="M610.52,100.44c2.16,0,3.83,1.66,3.83,3.81s-1.67,3.91-3.83,3.91-3.84-1.71-3.84-3.91,1.68-3.81,3.84-3.81ZM610.52,107.19c1.52,0,2.75-1.27,2.75-2.95s-1.23-2.85-2.75-2.85-2.76,1.23-2.76,2.85,1.24,2.95,2.76,2.95Z"/>
      </g>
      <g>
        <path class="cls-6" d="M620.32,100.56h2.61c1.26,0,2.17.7,2.17,1.9,0,.73-.36,1.31-.93,1.61v.02c.78.23,1.23.97,1.23,1.81,0,1.41-1.09,2.12-2.4,2.12h-2.67v-7.46ZM622.93,103.7c.68,0,1.1-.48,1.1-1.13s-.4-1.1-1.12-1.1h-1.54v2.23h1.56ZM623.05,107.12c.8,0,1.28-.51,1.28-1.27s-.51-1.28-1.29-1.28h-1.67v2.55h1.68Z"/>
        <path class="cls-6" d="M628.29,100.56h2.28c.78,0,1.11.06,1.4.17.76.28,1.26,1.04,1.26,2.02s-.53,1.76-1.34,2.02v.02s.08.09.22.34l1.59,2.9h-1.18l-1.58-2.97h-1.6v2.97h-1.05v-7.46ZM630.84,104.15c.81,0,1.32-.52,1.32-1.35,0-.55-.21-.94-.59-1.15-.2-.11-.44-.17-1.03-.17h-1.21v2.67h1.5Z"/>
        <path class="cls-6" d="M640.04,105.88h-2.81l-.74,2.15h-1.08l2.69-7.46h1.1l2.69,7.46h-1.09l-.75-2.15ZM638.63,101.59s-.17.68-.3,1.06l-.84,2.37h2.26l-.82-2.37c-.13-.38-.29-1.06-.29-1.06h-.02Z"/>
        <path class="cls-6" d="M644.26,106.38s.79.8,1.9.8c.7,0,1.29-.39,1.29-1.1,0-1.62-3.62-1.27-3.62-3.56,0-1.16,1-2.08,2.41-2.08s2.11.75,2.11.75l-.48.87s-.69-.64-1.64-.64c-.79,0-1.35.5-1.35,1.09,0,1.54,3.62,1.13,3.62,3.55,0,1.15-.89,2.1-2.37,2.1-1.59,0-2.47-.98-2.47-.98l.59-.79Z"/>
        <path class="cls-6" d="M651.28,100.56h1.05v7.46h-1.05v-7.46Z"/>
        <path class="cls-6" d="M655.63,100.56h1.05v6.55h3.34v.91h-4.39v-7.46Z"/>
      </g>
      <rect class="cls-6" x="509.71" y="65.59" width="1.02" height="48.29"/>
    </g>
  </g>
  <g>
    <g>
      <path class="cls-1" d="M60.45,46.01c-5.84,4.43-10.53,9.81-14.04,15.76.85-.72,1.71-1.44,2.61-2.12,12.05-9.13,26.68-12.47,40.55-10.49,16.29-4.84,34.12-1.77,47.89,8.43-.25-.35-.49-.71-.76-1.06-18.15-23.96-52.29-28.68-76.26-10.52Z"/>
      <path class="cls-4" d="M89.58,49.16c13.71,1.95,26.68,9.1,35.7,21.01,13.73,18.12,14.37,42.05,3.52,60.49,21.33-18.31,25.24-50.09,8.67-73.07-13.76-10.2-31.6-13.27-47.89-8.43Z"/>
      <path class="cls-5" d="M49.92,122.27c3.21,4.24,6.93,7.87,11.01,10.88-17.24-23.9-12.34-57.31,11.28-75.2,5.37-4.07,11.26-6.98,17.36-8.79-13.88-1.98-28.5,1.36-40.55,10.49-.9.68-1.77,1.4-2.61,2.12-10.85,18.45-10.21,42.38,3.51,60.49Z"/>
      <path class="cls-7" d="M125.28,70.17c-9.02-11.91-22-19.06-35.7-21.01-6.11,1.81-11.99,4.72-17.36,8.79-23.62,17.89-28.52,51.3-11.28,75.2,18.92,14.02,45.53,14.58,65.25-.36.9-.68,1.77-1.39,2.61-2.12,10.86-18.44,10.21-42.37-3.52-60.49ZM64.71,111.07c-11.97-15.8-8.86-38.31,6.94-50.27,15.8-11.97,38.31-8.86,50.28,6.94,11.97,15.8,8.86,38.31-6.94,50.27-15.8,11.97-38.31,8.87-50.28-6.93Z"/>
    </g>
    <path class="cls-3" d="M77.66,67.65l-19.16,25.12c1.04,7.46,4.43,14.65,10.16,20.38.75.75,1.54,1.45,2.34,2.13l34.09-47.11-27.43-.51Z"/>
    <path class="cls-2" d="M99.28,136.78s1.14,6.85,9.72,6.81c4.74-.02,18.97,0,18.97,0l-19.54-78.1c-.14-.54-.46-1.04-.94-1.4-.48-.36-1.03-.52-1.56-.52l-21.61.27h-.15c-2.18.05-4.34,1.05-5.78,2.89-.03.03-.05.05-.07.08l-.93,1.23-1.24,1.65h0c1.2-1.59,3.45-1.91,5.05-.72,0,0,0,0,0,0h0c.67.51,1.11,1.21,1.33,1.96l5.33,19.29,11.43,46.56Z"/>
  </g>
</svg>